<?xml version="1.0" encoding="iso-8859-1"?>
<!-- Generator: Adobe Illustrator 18.1.1, SVG Export Plug-In . SVG Version: 6.00 Build 0)  -->
<svg xmlns="http://www.w3.org/2000/svg" xmlns:xlink="http://www.w3.org/1999/xlink" version="1.1" id="Capa_1" x="0px" y="0px" viewBox="0 0 52.303 52.303" style="enable-background:new 0 0 52.303 52.303;" xml:space="preserve" width="512px" height="512px">
<g>
	<g>
		<path d="M34.8,33.237c-0.742-2.948-2.424-5.282-4.996-6.698c0.049-0.187,0.082-0.384,0.082-0.604    c0-1.432,0-2.863,0-4.295c1.5-0.488,3.001-0.975,4.502-1.462c1.293-0.42,0.738-2.463-0.562-2.04    c-1.449,0.47-2.896,0.94-4.347,1.411l-1.621,1.361c0,0-1.305-1.34-1.379-1.301c-1.574-0.383-3.146-0.766-4.719-1.149    c-1.326-0.322-1.888,1.718-0.563,2.04c1.397,0.341,2.794,0.681,4.192,1.021c0,1.461,0,2.92,0,4.38    c0,0.229,0.036,0.433,0.087,0.624c-2.586,1.413-4.276,3.754-5.021,6.712c-0.417,1.654,2.134,2.356,2.55,0.702    c0.609-2.418,1.981-4.473,4.367-5.424c0.094-0.037,0.179-0.082,0.256-0.133c0.078,0.051,0.162,0.096,0.257,0.133    c2.385,0.951,3.757,3.006,4.366,5.424c0.242,0.963,1.205,1.124,1.888,0.768l6.169,16.975h0.062l-6.025-17.104    C34.718,34.292,34.951,33.828,34.8,33.237z M27.66,24.299c-0.172,0-0.309-0.139-0.309-0.309c0-0.171,0.137-0.309,0.309-0.309    c0.17,0,0.31,0.138,0.31,0.309C27.968,24.16,27.829,24.299,27.66,24.299z M27.66,23.394c-0.172,0-0.309-0.138-0.309-0.308    c0-0.171,0.137-0.309,0.309-0.309c0.17,0,0.31,0.138,0.31,0.309C27.968,23.256,27.829,23.394,27.66,23.394z" fill="#D80027"/>
		<circle cx="27.934" cy="17.818" r="1.918" fill="#D80027"/>
		<path d="M17.953,13.904c-1.995,0.142-3.989,0.285-5.983,0.428c-0.084,0.006-0.162,0.02-0.235,0.041    c-0.466,0-0.926,0.164-1.235,0.534c-0.791,0.951-1.582,1.908-2.276,2.933c-0.254,0.376-0.298,0.829-0.202,1.256    c-0.003,0.049-0.008,0.097-0.005,0.15c0.159,2.4,0.468,4.782,1.035,7.123c0.325,1.338,2.385,0.771,2.06-0.567    c-0.357-1.472-0.598-2.956-0.766-4.452c1.321,0.857,2.669,1.668,4.076,2.382c1.225,0.624,2.307-1.22,1.078-1.845    c-1.393-0.708-2.729-1.511-4.038-2.359c0.497-0.719,0.963-1.274,1.621-2.064c0.274-0.328,0.441-0.714,0.49-1.106    c1.46-0.104,2.92-0.209,4.38-0.313C19.318,15.943,19.328,13.806,17.953,13.904z" fill="#D80027"/>
		<circle cx="13.608" cy="12.106" r="1.816" fill="#D80027"/>
		<path d="M40.535,24.729c1.523-0.408,3.014-0.921,4.481-1.486c-0.476,1.43-1.021,2.833-1.675,4.198    c-0.596,1.242,1.303,2.225,1.898,0.982c1.041-2.17,1.836-4.438,2.488-6.751c0.016-0.052,0.021-0.099,0.025-0.147    c0.185-0.397,0.234-0.851,0.062-1.271c-0.466-1.147-1.041-2.248-1.617-3.343c-0.226-0.426-0.642-0.682-1.098-0.778    c-0.066-0.035-0.141-0.065-0.221-0.088c-1.922-0.553-3.844-1.107-5.766-1.66c-1.324-0.382-1.76,1.711-0.442,2.09    c1.405,0.405,2.813,0.81,4.22,1.215c-0.033,0.395,0.051,0.808,0.25,1.185c0.479,0.908,0.818,1.549,1.156,2.356    c-1.456,0.558-2.93,1.066-4.439,1.47C38.531,23.056,39.204,25.084,40.535,24.729z" fill="#D80027"/>
		<circle cx="43.744" cy="13.527" r="1.816" fill="#D80027"/>
		<path d="M39.572,10.652c-0.377,0.378-0.455,1.146,0,1.511c0.608,0.487,1.219,0.974,1.873,1.396    c-0.337-0.227,0.219-1.724,1.078-1.845c-0.56-0.361-0.943-0.666-1.439-1.062C40.628,10.289,40.018,10.206,39.572,10.652z" fill="#D80027"/>
		<polygon points="51.679,47.011 39.732,31.08 39.32,31.397 51.679,47.097 52.303,47.889 52.303,47.843   " fill="#D80027"/>
		<path d="M51.679,32.158l-5.737-3.451c-0.012,0.024-0.022,0.053-0.036,0.076    c-0.051,0.106-0.113,0.203-0.181,0.295l5.954,3.469V32.158z" fill="#D80027"/>
		<path d="M42.895,27.265c0.05-0.102,0.095-0.205,0.144-0.309l-2.479-1.493    c-0.028,0.004-0.06,0.004-0.089,0.006l-0.239,0.404l2.612,1.521C42.858,27.353,42.872,27.308,42.895,27.265z" fill="#D80027"/>
		<polygon points="35.294,31.686 44.085,50.015 35.531,31.576   " fill="#D80027"/>
		<polygon points="24.529,34.41 25.18,51.317 24.789,34.401   " fill="#D80027"/>
		<polygon points="16.593,29.973 1.418,44.119 16.769,30.165   " fill="#D80027"/>
		<path d="M1.418,25.825v0.141l6.898-0.458c-0.014-0.065-0.027-0.131-0.04-0.195L1.418,25.825z" fill="#D80027"/>
		<path d="M15.978,24.737l-4.314,0.322c0.017,0.075,0.035,0.147,0.052,0.222l4.28-0.285L15.978,24.737z" fill="#D80027"/>
		<path d="M1.418,20.795v0.124l6.318,0.959c-0.007-0.062-0.014-0.124-0.021-0.187L1.418,20.795z" fill="#D80027"/>
		<path d="M13.677,17.936l2.843,2.279l0.32-0.41l-2.917-2.221C13.851,17.704,13.771,17.822,13.677,17.936z" fill="#D80027"/>
		<path d="M9.888,14.899c0.067-0.082,0.133-0.16,0.199-0.239L1.419,8.058L0.032,7.001l1.387,1.113    L9.888,14.899z" fill="#D80027"/>
		<path d="M18.973,13.598l-7.702-12.18h-0.063l7.39,12.024C18.733,13.479,18.859,13.529,18.973,13.598z" fill="#D80027"/>
		<path d="M19.693,15.222l0.22-0.137l-0.232-0.366c0.01,0.068,0.023,0.133,0.026,0.204    c0.003,0.099-0.002,0.199-0.015,0.298L19.693,15.222z" fill="#D80027"/>
		<polygon points="28.105,1.417 28.011,1.417 27.928,10.438 28.188,10.438   " fill="#D80027"/>
		<polygon points="24.063,11.316 20.763,1.417 20.692,1.417 23.816,11.396   " fill="#D80027"/>
		<polygon points="20.8,13.401 21.035,13.287 15.15,1.417 14.754,0.621 15.132,1.417   " fill="#D80027"/>
		<polygon points="17.107,13.444 15.772,10.752 17.049,13.449   " fill="#D80027"/>
		<polygon points="32.32,16.53 44.085,1.417 31.913,16.205   " fill="#D80027"/>
		<path d="M35.576,14.384l0.354,0.381l2.89-2.762c-0.033-0.115-0.058-0.236-0.063-0.362    c-0.003-0.045-0.003-0.089,0-0.134L35.576,14.384z" fill="#D80027"/>
		<path d="M40.988,9.931l8.787-8.397l-9.18,8.308C40.727,9.857,40.859,9.884,40.988,9.931z" fill="#D80027"/>
		<path d="M46.259,13.965l4.59-2.454l-4.574,2.352C46.271,13.897,46.265,13.931,46.259,13.965z" fill="#D80027"/>
		<polygon points="39.413,17.39 36.566,18.854 36.687,19.084 39.703,17.473   " fill="#D80027"/>
		<polygon points="16.547,16.861 15.856,16.91 16.529,17.548 16.884,17.167   " fill="#D80027"/>
		<path d="M11.322,12.617c-0.024-0.136-0.038-0.276-0.038-0.42c0-0.043,0.004-0.087,0.007-0.131L1.418,3.064    L0.005,1.776L0,1.899l1.418,1.342L11.322,12.617z" fill="#D80027"/>
		<polygon points="22.865,12.325 16.558,1.417 16.436,1.417 22.638,12.454   " fill="#D80027"/>
		<polygon points="26.861,11.465 22.937,1.417 22.775,1.417 26.619,11.558   " fill="#D80027"/>
		<polygon points="35.632,1.417 35.513,1.417 30.954,12.683 31.199,12.78   " fill="#D80027"/>
		<polygon points="1.418,34.014 16.098,27.356 15.876,26.885 1.418,33.921   " fill="#D80027"/>
		<polygon points="18.283,44.119 20.06,33.749 19.546,33.673   " fill="#D80027"/>
		<polygon points="20.556,51.679 20.735,51.679 23.507,34.932 22.498,34.79   " fill="#D80027"/>
		<polygon points="30.083,34.437 34.544,51.679 34.63,51.679 30.333,34.373   " fill="#D80027"/>
		<polygon points="28.058,35.014 31.767,51.679 31.863,51.679 28.314,34.958   " fill="#D80027"/>
		<path d="M43.044,19.892l-3.297-0.012v0.26l3.418-0.013C43.126,20.049,43.085,19.973,43.044,19.892z" fill="#D80027"/>
		<path d="M48.499,20.107l3.18-0.012v-0.17l-3.264-0.012C48.442,19.978,48.473,20.041,48.499,20.107z" fill="#D80027"/>
		<polygon points="10.391,45.874 10.517,45.944 17.898,32.451 17.669,32.326   " fill="#D80027"/>
		<path d="M48.223,22.66c-0.042,0.141-0.084,0.281-0.127,0.42l3.583,0.748v-0.385L48.223,22.66z" fill="#D80027"/>
		<path d="M43.96,24.775l-0.391-0.211c-0.22,0.075-0.437,0.147-0.648,0.218l0.863,0.446    C43.845,25.078,43.904,24.927,43.96,24.775z" fill="#D80027"/>
		<path d="M46.788,26.779l4.893,2.526v-0.373H51.68l-4.729-2.549C46.897,26.518,46.844,26.649,46.788,26.779z    " fill="#D80027"/>
		<polygon points="51.679,35.765 41.033,28.919 40.892,29.138 51.679,35.941   " fill="#D80027"/>
	</g>
</g>
<g>
</g>
<g>
</g>
<g>
</g>
<g>
</g>
<g>
</g>
<g>
</g>
<g>
</g>
<g>
</g>
<g>
</g>
<g>
</g>
<g>
</g>
<g>
</g>
<g>
</g>
<g>
</g>
<g>
</g>
</svg>
